<svg version="1.1" width="908.609000" height="299.238000" viewBox="0.000000 0.000000 681.457000 224.429000" xmlns="http://www.w3.org/2000/svg" xmlns:xlink="http://www.w3.org/1999/xlink" stroke-linecap="butt" stroke-linejoin="round" overflow="hidden"><defs stroke-linecap="butt" stroke-linejoin="round"></defs><defs stroke-linecap="butt" stroke-linejoin="round"><clipPath id="p6b71788ee2" stroke-linecap="butt" stroke-linejoin="round"><rect x="40.767200" y="9.039140" width="558.000000" height="166.320000" stroke-linecap="butt" stroke-linejoin="round"/></clipPath></defs><g id="figure_1" stroke-linecap="butt" stroke-linejoin="round"><g id="patch_1" stroke-linecap="butt" stroke-linejoin="round"><path d=" M 0.000000 224.429001 L 681.456970 224.429001 L 681.456970 0.000000 L 0.000000 0.000000 Z" stroke-linecap="butt" stroke-linejoin="round" fill="#FFFFFF"/></g><g id="axes_1" stroke-linecap="butt" stroke-linejoin="round"><g id="patch_2" stroke-linecap="butt" stroke-linejoin="round"><path d=" M 40.767200 175.358994 L 598.767029 175.358994 L 598.767029 9.039140 L 40.767200 9.039140 Z" stroke-linecap="butt" stroke-linejoin="round" fill="#FFFFFF"/></g><g id="matplotlib.axis_1" stroke-linecap="butt" stroke-linejoin="round"><g id="xtick_1" stroke-linecap="butt" stroke-linejoin="round"><g id="line2d_1" stroke-linecap="butt" stroke-linejoin="round"><path d=" M 66.130798 175.358994 L 66.130798 9.039140" stroke="#000000" stroke-width="0.100000" stroke-linecap="round" stroke-linejoin="round" fill="none" clip-path="url(#p6b71788ee2)"/></g><g id="line2d_2" stroke-linecap="butt" stroke-linejoin="round"></g><g id="text_1" stroke-linecap="butt" stroke-linejoin="round"><defs stroke-linecap="butt" stroke-linejoin="round"><path d=" M 4.156250 35.296902 C 4.156250 43.765598 5.026040 50.578098 6.765620 55.734402 C 8.505210 60.901001 11.088500 64.880203 14.515600 67.671898 C 17.953100 70.473999 22.275999 71.875000 27.484400 71.875000 C 31.328100 71.875000 34.697899 71.098999 37.593800 69.546898 C 40.489601 68.005203 42.880199 65.776001 44.765598 62.859402 C 46.661499 59.953098 48.145802 56.406200 49.218800 52.218800 C 50.291698 48.041698 50.828098 42.401001 50.828098 35.296902 C 50.828098 26.900999 49.963501 20.125000 48.234402 14.968800 C 46.515598 9.812500 43.937500 5.822920 40.500000 3.000000 C 37.072899 0.187500 32.734402 -1.218750 27.484400 -1.218750 C 20.588499 -1.218750 15.171900 1.255210 11.234400 6.203120 C 6.515620 12.161500 4.156250 21.859400 4.156250 35.296902 Z M 13.187500 35.296902 C 13.187500 23.546900 14.562500 15.724000 17.312500 11.828100 C 20.062500 7.942710 23.453100 6.000000 27.484400 6.000000 C 31.525999 6.000000 34.921902 7.953120 37.671902 11.859400 C 40.421902 15.765600 41.796902 23.578100 41.796902 35.296902 C 41.796902 47.088501 40.421902 54.916698 37.671902 58.781200 C 34.921902 62.656200 31.494801 64.593803 27.390600 64.593803 C 23.359400 64.593803 20.135401 62.885399 17.718800 59.468800 C 14.697900 55.114601 13.187500 47.057301 13.187500 35.296902 Z" id="ArialMT-48" stroke-linecap="butt" stroke-linejoin="round"/><path d=" M 5.468750 16.546900 L 13.921900 17.328100 C 14.630200 13.359400 15.994800 10.479200 18.015600 8.687500 C 20.036501 6.895830 22.625000 6.000000 25.781200 6.000000 C 28.479200 6.000000 30.843800 6.619790 32.875000 7.859380 C 34.916698 9.098960 36.588501 10.750000 37.890598 12.812500 C 39.192699 14.885400 40.281200 17.677099 41.156200 21.187500 C 42.041698 24.708300 42.484402 28.291700 42.484402 31.937500 C 42.484402 32.322899 42.468800 32.906200 42.437500 33.687500 C 40.677101 30.895800 38.276001 28.625000 35.234402 26.875000 C 32.192699 25.135401 28.895800 24.265600 25.343800 24.265600 C 19.416700 24.265600 14.401000 26.411501 10.296900 30.703100 C 6.203120 35.005199 4.156250 40.671902 4.156250 47.703098 C 4.156250 54.963501 6.296880 60.807301 10.578100 65.234398 C 14.859400 69.661499 20.218800 71.875000 26.656200 71.875000 C 31.312500 71.875000 35.567699 70.619797 39.421902 68.109398 C 43.286499 65.609398 46.218800 62.036499 48.218800 57.390598 C 50.218800 52.755199 51.218800 46.041698 51.218800 37.250000 C 51.218800 28.104200 50.223999 20.822901 48.234402 15.406200 C 46.255199 9.989580 43.302101 5.864580 39.375000 3.031250 C 35.458302 0.197917 30.864599 -1.218750 25.593800 -1.218750 C 19.989599 -1.218750 15.411500 0.333333 11.859400 3.437500 C 8.317710 6.552080 6.187500 10.921900 5.468750 16.546900 Z M 41.453098 48.140598 C 41.453098 53.192699 40.109402 57.197899 37.421902 60.156200 C 34.744801 63.114601 31.515600 64.593803 27.734400 64.593803 C 23.828100 64.593803 20.427099 63.000000 17.531200 59.812500 C 14.635400 56.625000 13.187500 52.489601 13.187500 47.406200 C 13.187500 42.854198 14.562500 39.151001 17.312500 36.296902 C 20.062500 33.453098 23.453100 32.031200 27.484400 32.031200 C 31.557301 32.031200 34.901001 33.453098 37.515598 36.296902 C 40.140598 39.151001 41.453098 43.098999 41.453098 48.140598 Z" id="ArialMT-57" stroke-linecap="butt" stroke-linejoin="round"/><path d=" M 3.171880 21.484400 L 3.171880 30.328100 L 30.171900 30.328100 L 30.171900 21.484400 Z" id="ArialMT-45" stroke-linecap="butt" stroke-linejoin="round"/><path d=" M 37.250000 0.000000 L 28.468800 0.000000 L 28.468800 56.000000 C 26.354200 53.989601 23.578100 51.973999 20.140600 49.953098 C 16.703100 47.932301 13.619800 46.416698 10.890600 45.406200 L 10.890600 53.906200 C 15.807300 56.218800 20.104200 59.015598 23.781200 62.296902 C 27.458300 65.588501 30.062500 68.781197 31.593800 71.875000 L 37.250000 71.875000 Z" id="ArialMT-49" stroke-linecap="butt" stroke-linejoin="round"/><path d=" M 50.343800 8.453120 L 50.343800 0.000000 L 3.031250 0.000000 C 2.968750 2.114580 3.307290 4.151040 4.046880 6.109380 C 5.255210 9.328120 7.182290 12.500000 9.828120 15.625000 C 12.484400 18.750000 16.322901 22.364599 21.343800 26.468800 C 29.125000 32.843800 34.380199 37.895802 37.109402 41.625000 C 39.848999 45.354198 41.218800 48.880199 41.218800 52.203098 C 41.218800 55.682301 39.968800 58.614601 37.468800 61.000000 C 34.979198 63.395802 31.734400 64.593803 27.734400 64.593803 C 23.505199 64.593803 20.119801 63.322899 17.578100 60.781200 C 15.036500 58.250000 13.750000 54.739601 13.718800 50.250000 L 4.687500 51.171902 C 5.302080 57.911499 7.625000 63.046902 11.656200 66.578102 C 15.697900 70.109398 21.125000 71.875000 27.937500 71.875000 C 34.802101 71.875000 40.234402 69.968803 44.234402 66.156197 C 48.244801 62.354198 50.250000 57.635399 50.250000 52.000000 C 50.250000 49.135399 49.661499 46.317699 48.484402 43.546902 C 47.317699 40.786499 45.375000 37.875000 42.656200 34.812500 C 39.937500 31.750000 35.421902 27.552099 29.109400 22.218800 C 23.828100 17.791700 20.437500 14.786500 18.937500 13.203100 C 17.447901 11.630200 16.213499 10.046900 15.234400 8.453120 Z" id="ArialMT-50" stroke-linecap="butt" stroke-linejoin="round"/><path d=" M 49.750000 54.046902 L 41.015598 53.375000 C 40.234402 56.822899 39.130199 59.328098 37.703098 60.890598 C 35.317699 63.401001 32.385399 64.656197 28.906200 64.656197 C 26.104200 64.656197 23.645800 63.875000 21.531200 62.312500 C 18.770800 60.291698 16.588499 57.343800 14.984400 53.468800 C 13.390600 49.593800 12.562500 44.078098 12.500000 36.921902 C 14.614600 40.140598 17.203100 42.531200 20.265600 44.093800 C 23.328100 45.656200 26.536501 46.437500 29.890600 46.437500 C 35.744801 46.437500 40.729198 44.281200 44.843800 39.968800 C 48.968800 35.656200 51.031200 30.083300 51.031200 23.250000 C 51.031200 18.750000 50.062500 14.572900 48.125000 10.718800 C 46.187500 6.864580 43.526001 3.911460 40.140598 1.859380 C 36.755199 -0.192708 32.911499 -1.218750 28.609400 -1.218750 C 21.286501 -1.218750 15.312500 1.473960 10.687500 6.859380 C 6.072920 12.244800 3.765620 21.125000 3.765620 33.500000 C 3.765620 47.333302 6.317710 57.390598 11.421900 63.671902 C 15.880200 69.140602 21.885401 71.875000 29.437500 71.875000 C 35.072899 71.875000 39.687500 70.296898 43.281200 67.140602 C 46.885399 63.984402 49.041698 59.619801 49.750000 54.046902 Z M 13.875000 23.187500 C 13.875000 20.166700 14.515600 17.270800 15.796900 14.500000 C 17.078100 11.739600 18.875000 9.630210 21.187500 8.171880 C 23.500000 6.723960 25.927099 6.000000 28.468800 6.000000 C 32.177101 6.000000 35.364601 7.494790 38.031200 10.484400 C 40.708302 13.484400 42.046902 17.557301 42.046902 22.703100 C 42.046902 27.650999 40.723999 31.546900 38.078098 34.390598 C 35.442699 37.244801 32.125000 38.671902 28.125000 38.671902 C 24.156200 38.671902 20.786501 37.244801 18.015600 34.390598 C 15.255200 31.546900 13.875000 27.812500 13.875000 23.187500 Z" id="ArialMT-54" stroke-linecap="butt" stroke-linejoin="round"/></defs><g stroke-linecap="butt" stroke-linejoin="round" fill="#262626" transform="matrix(0.063640,-0.063640,-0.063640,-0.063640,51.501200,215.964000)"><use width="100.000000%" height="100.000000%" xlink:href="#ArialMT-48" stroke-linecap="butt" stroke-linejoin="round"></use><use x="55.615200" width="100.000000%" height="100.000000%" xlink:href="#ArialMT-57" stroke-linecap="butt" stroke-linejoin="round"></use><use x="111.230000" width="100.000000%" height="100.000000%" xlink:href="#ArialMT-45" stroke-linecap="butt" stroke-linejoin="round"></use><use x="144.531000" width="100.000000%" height="100.000000%" xlink:href="#ArialMT-49" stroke-linecap="butt" stroke-linejoin="round"></use><use x="200.146000" width="100.000000%" height="100.000000%" xlink:href="#ArialMT-50" stroke-linecap="butt" stroke-linejoin="round"></use><use x="255.762000" width="100.000000%" height="100.000000%" xlink:href="#ArialMT-45" stroke-linecap="butt" stroke-linejoin="round"></use><use x="289.062000" width="100.000000%" height="100.000000%" xlink:href="#ArialMT-50" stroke-linecap="butt" stroke-linejoin="round"></use><use x="344.678000" width="100.000000%" height="100.000000%" xlink:href="#ArialMT-48" stroke-linecap="butt" stroke-linejoin="round"></use><use x="400.293000" width="100.000000%" height="100.000000%" xlink:href="#ArialMT-49" stroke-linecap="butt" stroke-linejoin="round"></use><use x="455.908000" width="100.000000%" height="100.000000%" xlink:href="#ArialMT-54" stroke-linecap="butt" stroke-linejoin="round"></use></g></g></g><g id="xtick_2" stroke-linecap="butt" stroke-linejoin="round"><g id="line2d_3" stroke-linecap="butt" stroke-linejoin="round"><path d=" M 87.267197 175.358994 L 87.267197 9.039140" stroke="#000000" stroke-width="0.100000" stroke-linecap="round" stroke-linejoin="round" fill="none" clip-path="url(#p6b71788ee2)"/></g><g id="line2d_4" stroke-linecap="butt" stroke-linejoin="round"></g><g id="text_2" stroke-linecap="butt" stroke-linejoin="round"><g stroke-linecap="butt" stroke-linejoin="round" fill="#262626" transform="matrix(0.063640,-0.063640,-0.063640,-0.063640,72.637500,215.964000)"><use width="100.000000%" height="100.000000%" xlink:href="#ArialMT-50" stroke-linecap="butt" stroke-linejoin="round"></use><use x="55.615200" width="100.000000%" height="100.000000%" xlink:href="#ArialMT-57" stroke-linecap="butt" stroke-linejoin="round"></use><use x="111.230000" width="100.000000%" height="100.000000%" xlink:href="#ArialMT-45" stroke-linecap="butt" stroke-linejoin="round"></use><use x="144.531000" width="100.000000%" height="100.000000%" xlink:href="#ArialMT-49" stroke-linecap="butt" stroke-linejoin="round"></use><use x="200.146000" width="100.000000%" height="100.000000%" xlink:href="#ArialMT-50" stroke-linecap="butt" stroke-linejoin="round"></use><use x="255.762000" width="100.000000%" height="100.000000%" xlink:href="#ArialMT-45" stroke-linecap="butt" stroke-linejoin="round"></use><use x="289.062000" width="100.000000%" height="100.000000%" xlink:href="#ArialMT-50" stroke-linecap="butt" stroke-linejoin="round"></use><use x="344.678000" width="100.000000%" height="100.000000%" xlink:href="#ArialMT-48" stroke-linecap="butt" stroke-linejoin="round"></use><use x="400.293000" width="100.000000%" height="100.000000%" xlink:href="#ArialMT-49" stroke-linecap="butt" stroke-linejoin="round"></use><use x="455.908000" width="100.000000%" height="100.000000%" xlink:href="#ArialMT-54" stroke-linecap="butt" stroke-linejoin="round"></use></g></g></g><g id="xtick_3" stroke-linecap="butt" stroke-linejoin="round"><g id="line2d_5" stroke-linecap="butt" stroke-linejoin="round"><path d=" M 104.176003 175.358994 L 104.176003 9.039140" stroke="#000000" stroke-width="0.100000" stroke-linecap="round" stroke-linejoin="round" fill="none" clip-path="url(#p6b71788ee2)"/></g><g id="line2d_6" stroke-linecap="butt" stroke-linejoin="round"></g></g><g id="xtick_4" stroke-linecap="butt" stroke-linejoin="round"><g id="line2d_7" stroke-linecap="butt" stroke-linejoin="round"><path d=" M 105.233002 175.358994 L 105.233002 9.039140" stroke="#000000" stroke-width="0.100000" stroke-linecap="round" stroke-linejoin="round" fill="none" clip-path="url(#p6b71788ee2)"/></g><g id="line2d_8" stroke-linecap="butt" stroke-linejoin="round"></g><g id="text_3" stroke-linecap="butt" stroke-linejoin="round"><defs stroke-linecap="butt" stroke-linejoin="round"><path d=" M 4.156250 18.750000 L 13.375000 19.531200 C 14.062500 15.041700 15.651000 11.661500 18.140600 9.390620 C 20.630199 7.130210 23.635401 6.000000 27.156200 6.000000 C 31.385401 6.000000 34.963501 7.593750 37.890598 10.781200 C 40.817699 13.979200 42.281200 18.213499 42.281200 23.484400 C 42.281200 28.494801 40.875000 32.447899 38.062500 35.343800 C 35.250000 38.250000 31.562500 39.703098 27.000000 39.703098 C 24.166700 39.703098 21.609400 39.057301 19.328100 37.765598 C 17.057301 36.484402 15.270800 34.817699 13.968800 32.765598 L 5.718750 33.843800 L 12.640600 70.609398 L 48.250000 70.609398 L 48.250000 62.203098 L 19.671900 62.203098 L 15.828100 42.968800 C 20.119801 45.968800 24.625000 47.468800 29.343800 47.468800 C 35.593800 47.468800 40.864601 45.302101 45.156200 40.968800 C 49.458302 36.635399 51.609402 31.067699 51.609402 24.265600 C 51.609402 17.786501 49.723999 12.187500 45.953098 7.468750 C 41.359402 1.677080 35.093800 -1.218750 27.156200 -1.218750 C 20.645800 -1.218750 15.328100 0.604167 11.203100 4.250000 C 7.088540 7.895830 4.739580 12.729200 4.156250 18.750000 Z" id="ArialMT-53" stroke-linecap="butt" stroke-linejoin="round"/><path d=" M 4.734380 62.203098 L 4.734380 70.656197 L 51.078098 70.656197 L 51.078098 63.812500 C 46.515598 58.968800 41.994801 52.526001 37.515598 44.484402 C 33.046902 36.442699 29.593800 28.171900 27.156200 19.671900 C 25.395800 13.682300 24.270800 7.125000 23.781200 0.000000 L 14.750000 0.000000 C 14.843800 5.635420 15.947900 12.437500 18.062500 20.406200 C 20.177099 28.385401 23.213499 36.078098 27.171900 43.484402 C 31.130199 50.890598 35.338501 57.130199 39.796902 62.203098 Z" id="ArialMT-55" stroke-linecap="butt" stroke-linejoin="round"/></defs><g stroke-linecap="butt" stroke-linejoin="round" fill="#262626" transform="matrix(0.063640,-0.063640,-0.063640,-0.063640,90.603400,215.964000)"><use width="100.000000%" height="100.000000%" xlink:href="#ArialMT-49" stroke-linecap="butt" stroke-linejoin="round"></use><use x="55.615200" width="100.000000%" height="100.000000%" xlink:href="#ArialMT-53" stroke-linecap="butt" stroke-linejoin="round"></use><use x="111.230000" width="100.000000%" height="100.000000%" xlink:href="#ArialMT-45" stroke-linecap="butt" stroke-linejoin="round"></use><use x="144.531000" width="100.000000%" height="100.000000%" xlink:href="#ArialMT-48" stroke-linecap="butt" stroke-linejoin="round"></use><use x="200.146000" width="100.000000%" height="100.000000%" xlink:href="#ArialMT-49" stroke-linecap="butt" stroke-linejoin="round"></use><use x="255.762000" width="100.000000%" height="100.000000%" xlink:href="#ArialMT-45" stroke-linecap="butt" stroke-linejoin="round"></use><use x="289.062000" width="100.000000%" height="100.000000%" xlink:href="#ArialMT-50" stroke-linecap="butt" stroke-linejoin="round"></use><use x="344.678000" width="100.000000%" height="100.000000%" xlink:href="#ArialMT-48" stroke-linecap="butt" stroke-linejoin="round"></use><use x="400.293000" width="100.000000%" height="100.000000%" xlink:href="#ArialMT-49" stroke-linecap="butt" stroke-linejoin="round"></use><use x="455.908000" width="100.000000%" height="100.000000%" xlink:href="#ArialMT-55" stroke-linecap="butt" stroke-linejoin="round"></use></g></g></g><g id="xtick_5" stroke-linecap="butt" stroke-linejoin="round"><g id="line2d_9" stroke-linecap="butt" stroke-linejoin="round"><path d=" M 167.585007 175.358994 L 167.585007 9.039140" stroke="#000000" stroke-width="0.100000" stroke-linecap="round" stroke-linejoin="round" fill="none" clip-path="url(#p6b71788ee2)"/></g><g id="line2d_10" stroke-linecap="butt" stroke-linejoin="round"></g><g id="text_4" stroke-linecap="butt" stroke-linejoin="round"><defs stroke-linecap="butt" stroke-linejoin="round"><path d=" M 4.203120 18.890600 L 12.984400 20.062500 C 13.994800 15.083300 15.713500 11.494800 18.140600 9.296880 C 20.567699 7.098960 23.520800 6.000000 27.000000 6.000000 C 31.135401 6.000000 34.625000 7.432290 37.468800 10.296900 C 40.322899 13.161500 41.750000 16.713499 41.750000 20.953100 C 41.750000 24.984400 40.432301 28.307301 37.796902 30.921900 C 35.161499 33.546902 31.807301 34.859402 27.734400 34.859402 C 26.078100 34.859402 24.010401 34.536499 21.531200 33.890598 L 22.515600 41.609402 C 23.099001 41.536499 23.567699 41.500000 23.921900 41.500000 C 27.671900 41.500000 31.041700 42.473999 34.031200 44.421902 C 37.031200 46.380199 38.531200 49.395802 38.531200 53.468800 C 38.531200 56.687500 37.437500 59.354198 35.250000 61.468800 C 33.072899 63.593800 30.260401 64.656197 26.812500 64.656197 C 23.395800 64.656197 20.546900 63.578098 18.265600 61.421902 C 15.984400 59.276001 14.520800 56.057301 13.875000 51.765598 L 5.078120 53.328098 C 6.151040 59.213501 8.588540 63.776001 12.390600 67.015602 C 16.203100 70.255203 20.942699 71.875000 26.609400 71.875000 C 30.515600 71.875000 34.109402 71.036499 37.390598 69.359398 C 40.682301 67.682297 43.197899 65.395798 44.937500 62.500000 C 46.687500 59.604198 47.562500 56.526001 47.562500 53.265598 C 47.562500 50.182301 46.729198 47.369801 45.062500 44.828098 C 43.406200 42.286499 40.953098 40.265598 37.703098 38.765598 C 41.932301 37.796902 45.218800 35.770802 47.562500 32.687500 C 49.906200 29.614599 51.078098 25.765600 51.078098 21.140600 C 51.078098 14.890600 48.796902 9.593750 44.234402 5.250000 C 39.682301 0.906250 33.921902 -1.265620 26.953100 -1.265620 C 20.671900 -1.265620 15.453100 0.604167 11.296900 4.343750 C 7.151040 8.093750 4.786460 12.942700 4.203120 18.890600 Z" id="ArialMT-51" stroke-linecap="butt" stroke-linejoin="round"/></defs><g stroke-linecap="butt" stroke-linejoin="round" fill="#262626" transform="matrix(0.063640,-0.063640,-0.063640,-0.063640,152.956000,215.964000)"><use width="100.000000%" height="100.000000%" xlink:href="#ArialMT-49" stroke-linecap="butt" stroke-linejoin="round"></use><use x="55.615200" width="100.000000%" height="100.000000%" xlink:href="#ArialMT-53" stroke-linecap="butt" stroke-linejoin="round"></use><use x="111.230000" width="100.000000%" height="100.000000%" xlink:href="#ArialMT-45" stroke-linecap="butt" stroke-linejoin="round"></use><use x="144.531000" width="100.000000%" height="100.000000%" xlink:href="#ArialMT-48" stroke-linecap="butt" stroke-linejoin="round"></use><use x="200.146000" width="100.000000%" height="100.000000%" xlink:href="#ArialMT-51" stroke-linecap="butt" stroke-linejoin="round"></use><use x="255.762000" width="100.000000%" height="100.000000%" xlink:href="#ArialMT-45" stroke-linecap="butt" stroke-linejoin="round"></use><use x="289.062000" width="100.000000%" height="100.000000%" xlink:href="#ArialMT-50" stroke-linecap="butt" stroke-linejoin="round"></use><use x="344.678000" width="100.000000%" height="100.000000%" xlink:href="#ArialMT-48" stroke-linecap="butt" stroke-linejoin="round"></use><use x="400.293000" width="100.000000%" height="100.000000%" xlink:href="#ArialMT-49" stroke-linecap="butt" stroke-linejoin="round"></use><use x="455.908000" width="100.000000%" height="100.000000%" xlink:href="#ArialMT-55" stroke-linecap="butt" stroke-linejoin="round"></use></g></g></g><g id="xtick_6" stroke-linecap="butt" stroke-linejoin="round"><g id="line2d_11" stroke-linecap="butt" stroke-linejoin="round"><path d=" M 392.687988 175.358994 L 392.687988 9.039140" stroke="#000000" stroke-width="0.100000" stroke-linecap="round" stroke-linejoin="round" fill="none" clip-path="url(#p6b71788ee2)"/></g><g id="line2d_12" stroke-linecap="butt" stroke-linejoin="round"></g><g id="text_5" stroke-linecap="butt" stroke-linejoin="round"><defs stroke-linecap="butt" stroke-linejoin="round"><path d=" M 32.328098 0.000000 L 32.328098 17.140600 L 1.265620 17.140600 L 1.265620 25.203100 L 33.937500 71.578102 L 41.109402 71.578102 L 41.109402 25.203100 L 50.781200 25.203100 L 50.781200 17.140600 L 41.109402 17.140600 L 41.109402 0.000000 Z M 32.328098 25.203100 L 32.328098 57.468800 L 9.906250 25.203100 Z" id="ArialMT-52" stroke-linecap="butt" stroke-linejoin="round"/></defs><g stroke-linecap="butt" stroke-linejoin="round" fill="#262626" transform="matrix(0.063640,-0.063640,-0.063640,-0.063640,378.058000,215.964000)"><use width="100.000000%" height="100.000000%" xlink:href="#ArialMT-49" stroke-linecap="butt" stroke-linejoin="round"></use><use x="55.615200" width="100.000000%" height="100.000000%" xlink:href="#ArialMT-52" stroke-linecap="butt" stroke-linejoin="round"></use><use x="111.230000" width="100.000000%" height="100.000000%" xlink:href="#ArialMT-45" stroke-linecap="butt" stroke-linejoin="round"></use><use x="144.531000" width="100.000000%" height="100.000000%" xlink:href="#ArialMT-49" stroke-linecap="butt" stroke-linejoin="round"></use><use x="200.146000" width="100.000000%" height="100.000000%" xlink:href="#ArialMT-48" stroke-linecap="butt" stroke-linejoin="round"></use><use x="255.762000" width="100.000000%" height="100.000000%" xlink:href="#ArialMT-45" stroke-linecap="butt" stroke-linejoin="round"></use><use x="289.062000" width="100.000000%" height="100.000000%" xlink:href="#ArialMT-50" stroke-linecap="butt" stroke-linejoin="round"></use><use x="344.678000" width="100.000000%" height="100.000000%" xlink:href="#ArialMT-48" stroke-linecap="butt" stroke-linejoin="round"></use><use x="400.293000" width="100.000000%" height="100.000000%" xlink:href="#ArialMT-49" stroke-linecap="butt" stroke-linejoin="round"></use><use x="455.908000" width="100.000000%" height="100.000000%" xlink:href="#ArialMT-55" stroke-linecap="butt" stroke-linejoin="round"></use></g></g></g><g id="xtick_7" stroke-linecap="butt" stroke-linejoin="round"><g id="line2d_13" stroke-linecap="butt" stroke-linejoin="round"><path d=" M 464.550995 175.358994 L 464.550995 9.039140" stroke="#000000" stroke-width="0.100000" stroke-linecap="round" stroke-linejoin="round" fill="none" clip-path="url(#p6b71788ee2)"/></g><g id="line2d_14" stroke-linecap="butt" stroke-linejoin="round"></g><g id="text_6" stroke-linecap="butt" stroke-linejoin="round"><g stroke-linecap="butt" stroke-linejoin="round" fill="#262626" transform="matrix(0.063640,-0.063640,-0.063640,-0.063640,449.922000,215.964000)"><use width="100.000000%" height="100.000000%" xlink:href="#ArialMT-50" stroke-linecap="butt" stroke-linejoin="round"></use><use x="55.615200" width="100.000000%" height="100.000000%" xlink:href="#ArialMT-49" stroke-linecap="butt" stroke-linejoin="round"></use><use x="111.230000" width="100.000000%" height="100.000000%" xlink:href="#ArialMT-45" stroke-linecap="butt" stroke-linejoin="round"></use><use x="144.531000" width="100.000000%" height="100.000000%" xlink:href="#ArialMT-49" stroke-linecap="butt" stroke-linejoin="round"></use><use x="200.146000" width="100.000000%" height="100.000000%" xlink:href="#ArialMT-50" stroke-linecap="butt" stroke-linejoin="round"></use><use x="255.762000" width="100.000000%" height="100.000000%" xlink:href="#ArialMT-45" stroke-linecap="butt" stroke-linejoin="round"></use><use x="289.062000" width="100.000000%" height="100.000000%" xlink:href="#ArialMT-50" stroke-linecap="butt" stroke-linejoin="round"></use><use x="344.678000" width="100.000000%" height="100.000000%" xlink:href="#ArialMT-48" stroke-linecap="butt" stroke-linejoin="round"></use><use x="400.293000" width="100.000000%" height="100.000000%" xlink:href="#ArialMT-49" stroke-linecap="butt" stroke-linejoin="round"></use><use x="455.908000" width="100.000000%" height="100.000000%" xlink:href="#ArialMT-55" stroke-linecap="butt" stroke-linejoin="round"></use></g></g></g><g id="xtick_8" stroke-linecap="butt" stroke-linejoin="round"><g id="line2d_15" stroke-linecap="butt" stroke-linejoin="round"><path d=" M 499.425995 175.358994 L 499.425995 9.039140" stroke="#000000" stroke-width="0.100000" stroke-linecap="round" stroke-linejoin="round" fill="none" clip-path="url(#p6b71788ee2)"/></g><g id="line2d_16" stroke-linecap="butt" stroke-linejoin="round"></g><g id="text_7" stroke-linecap="butt" stroke-linejoin="round"><defs stroke-linecap="butt" stroke-linejoin="round"><path d=" M 17.671900 38.812500 C 14.026000 40.156200 11.322900 42.062500 9.562500 44.531200 C 7.812500 47.010399 6.937500 49.973999 6.937500 53.421902 C 6.937500 58.630199 8.807290 63.005199 12.546900 66.546898 C 16.296900 70.098999 21.275999 71.875000 27.484400 71.875000 C 33.734402 71.875000 38.765598 70.057297 42.578098 66.421898 C 46.390598 62.796902 48.296902 58.380199 48.296902 53.171902 C 48.296902 49.848999 47.421902 46.958302 45.671902 44.500000 C 43.932301 42.052101 41.291698 40.156200 37.750000 38.812500 C 42.145802 37.385399 45.489601 35.072899 47.781200 31.875000 C 50.072899 28.687500 51.218800 24.880199 51.218800 20.453100 C 51.218800 14.338500 49.052101 9.197920 44.718800 5.031250 C 40.395802 0.864583 34.703098 -1.218750 27.640600 -1.218750 C 20.578100 -1.218750 14.880200 0.869792 10.546900 5.046880 C 6.213540 9.234380 4.046880 14.453100 4.046880 20.703100 C 4.046880 25.359400 5.229170 29.255199 7.593750 32.390598 C 9.958330 35.536499 13.317700 37.677101 17.671900 38.812500 Z M 15.921900 53.718800 C 15.921900 50.333302 17.010401 47.562500 19.187500 45.406200 C 21.375000 43.260399 24.208300 42.187500 27.687500 42.187500 C 31.072901 42.187500 33.848999 43.250000 36.015598 45.375000 C 38.182301 47.510399 39.265598 50.125000 39.265598 53.218800 C 39.265598 56.447899 38.145802 59.161499 35.906200 61.359402 C 33.677101 63.557301 30.906200 64.656197 27.593800 64.656197 C 24.239599 64.656197 21.453100 63.578098 19.234400 61.421902 C 17.025999 59.276001 15.921900 56.708302 15.921900 53.718800 Z M 13.093800 20.656200 C 13.093800 18.145800 13.687500 15.718800 14.875000 13.375000 C 16.062500 11.031200 17.828100 9.213540 20.171900 7.921880 C 22.515600 6.640620 25.036501 6.000000 27.734400 6.000000 C 31.932301 6.000000 35.395802 7.348960 38.125000 10.046900 C 40.864601 12.755200 42.234402 16.192699 42.234402 20.359400 C 42.234402 24.588499 40.828098 28.088499 38.015598 30.859400 C 35.203098 33.630199 31.677099 35.015598 27.437500 35.015598 C 23.302099 35.015598 19.875000 33.645802 17.156200 30.906200 C 14.447900 28.177099 13.093800 24.760401 13.093800 20.656200 Z" id="ArialMT-56" stroke-linecap="butt" stroke-linejoin="round"/></defs><g stroke-linecap="butt" stroke-linejoin="round" fill="#262626" transform="matrix(0.063640,-0.063640,-0.063640,-0.063640,484.797000,215.964000)"><use width="100.000000%" height="100.000000%" xlink:href="#ArialMT-50" stroke-linecap="butt" stroke-linejoin="round"></use><use x="55.615200" width="100.000000%" height="100.000000%" xlink:href="#ArialMT-51" stroke-linecap="butt" stroke-linejoin="round"></use><use x="111.230000" width="100.000000%" height="100.000000%" xlink:href="#ArialMT-45" stroke-linecap="butt" stroke-linejoin="round"></use><use x="144.531000" width="100.000000%" height="100.000000%" xlink:href="#ArialMT-48" stroke-linecap="butt" stroke-linejoin="round"></use><use x="200.146000" width="100.000000%" height="100.000000%" xlink:href="#ArialMT-49" stroke-linecap="butt" stroke-linejoin="round"></use><use x="255.762000" width="100.000000%" height="100.000000%" xlink:href="#ArialMT-45" stroke-linecap="butt" stroke-linejoin="round"></use><use x="289.062000" width="100.000000%" height="100.000000%" xlink:href="#ArialMT-50" stroke-linecap="butt" stroke-linejoin="round"></use><use x="344.678000" width="100.000000%" height="100.000000%" xlink:href="#ArialMT-48" stroke-linecap="butt" stroke-linejoin="round"></use><use x="400.293000" width="100.000000%" height="100.000000%" xlink:href="#ArialMT-49" stroke-linecap="butt" stroke-linejoin="round"></use><use x="455.908000" width="100.000000%" height="100.000000%" xlink:href="#ArialMT-56" stroke-linecap="butt" stroke-linejoin="round"></use></g></g></g><g id="xtick_9" stroke-linecap="butt" stroke-linejoin="round"><g id="line2d_17" stroke-linecap="butt" stroke-linejoin="round"><path d=" M 573.403992 175.358994 L 573.403992 9.039140" stroke="#000000" stroke-width="0.100000" stroke-linecap="round" stroke-linejoin="round" fill="none" clip-path="url(#p6b71788ee2)"/></g><g id="line2d_18" stroke-linecap="butt" stroke-linejoin="round"></g><g id="text_8" stroke-linecap="butt" stroke-linejoin="round"><g stroke-linecap="butt" stroke-linejoin="round" fill="#262626" transform="matrix(0.063640,-0.063640,-0.063640,-0.063640,558.774000,215.964000)"><use width="100.000000%" height="100.000000%" xlink:href="#ArialMT-48" stroke-linecap="butt" stroke-linejoin="round"></use><use x="55.615200" width="100.000000%" height="100.000000%" xlink:href="#ArialMT-51" stroke-linecap="butt" stroke-linejoin="round"></use><use x="111.230000" width="100.000000%" height="100.000000%" xlink:href="#ArialMT-45" stroke-linecap="butt" stroke-linejoin="round"></use><use x="144.531000" width="100.000000%" height="100.000000%" xlink:href="#ArialMT-48" stroke-linecap="butt" stroke-linejoin="round"></use><use x="200.146000" width="100.000000%" height="100.000000%" xlink:href="#ArialMT-52" stroke-linecap="butt" stroke-linejoin="round"></use><use x="255.762000" width="100.000000%" height="100.000000%" xlink:href="#ArialMT-45" stroke-linecap="butt" stroke-linejoin="round"></use><use x="289.062000" width="100.000000%" height="100.000000%" xlink:href="#ArialMT-50" stroke-linecap="butt" stroke-linejoin="round"></use><use x="344.678000" width="100.000000%" height="100.000000%" xlink:href="#ArialMT-48" stroke-linecap="butt" stroke-linejoin="round"></use><use x="400.293000" width="100.000000%" height="100.000000%" xlink:href="#ArialMT-49" stroke-linecap="butt" stroke-linejoin="round"></use><use x="455.908000" width="100.000000%" height="100.000000%" xlink:href="#ArialMT-56" stroke-linecap="butt" stroke-linejoin="round"></use></g></g></g></g><g id="matplotlib.axis_2" stroke-linecap="butt" stroke-linejoin="round"><g id="ytick_1" stroke-linecap="butt" stroke-linejoin="round"><g id="line2d_19" stroke-linecap="butt" stroke-linejoin="round"><path d=" M 40.767200 169.255005 L 598.767029 169.255005" stroke="#000000" stroke-width="0.100000" stroke-linecap="round" stroke-linejoin="round" fill="none" clip-path="url(#p6b71788ee2)"/></g><g id="line2d_20" stroke-linecap="butt" stroke-linejoin="round"></g><g id="text_9" stroke-linecap="butt" stroke-linejoin="round"><g stroke-linecap="butt" stroke-linejoin="round" fill="#262626" transform="matrix(0.100000,0.000000,0.000000,-0.100000,31.706300,172.834000)"><use width="100.000000%" height="100.000000%" xlink:href="#ArialMT-48" stroke-linecap="butt" stroke-linejoin="round"></use></g></g></g><g id="ytick_2" stroke-linecap="butt" stroke-linejoin="round"><g id="line2d_21" stroke-linecap="butt" stroke-linejoin="round"><path d=" M 40.767200 129.636002 L 598.767029 129.636002" stroke="#000000" stroke-width="0.100000" stroke-linecap="round" stroke-linejoin="round" fill="none" clip-path="url(#p6b71788ee2)"/></g><g id="line2d_22" stroke-linecap="butt" stroke-linejoin="round"></g><g id="text_10" stroke-linecap="butt" stroke-linejoin="round"><g stroke-linecap="butt" stroke-linejoin="round" fill="#262626" transform="matrix(0.100000,0.000000,0.000000,-0.100000,26.145300,133.215000)"><use width="100.000000%" height="100.000000%" xlink:href="#ArialMT-50" stroke-linecap="butt" stroke-linejoin="round"></use><use x="55.615200" width="100.000000%" height="100.000000%" xlink:href="#ArialMT-53" stroke-linecap="butt" stroke-linejoin="round"></use></g></g></g><g id="ytick_3" stroke-linecap="butt" stroke-linejoin="round"><g id="line2d_23" stroke-linecap="butt" stroke-linejoin="round"><path d=" M 40.767200 90.017097 L 598.767029 90.017097" stroke="#000000" stroke-width="0.100000" stroke-linecap="round" stroke-linejoin="round" fill="none" clip-path="url(#p6b71788ee2)"/></g><g id="line2d_24" stroke-linecap="butt" stroke-linejoin="round"></g><g id="text_11" stroke-linecap="butt" stroke-linejoin="round"><g stroke-linecap="butt" stroke-linejoin="round" fill="#262626" transform="matrix(0.100000,0.000000,0.000000,-0.100000,26.145300,93.596000)"><use width="100.000000%" height="100.000000%" xlink:href="#ArialMT-53" stroke-linecap="butt" stroke-linejoin="round"></use><use x="55.615200" width="100.000000%" height="100.000000%" xlink:href="#ArialMT-48" stroke-linecap="butt" stroke-linejoin="round"></use></g></g></g><g id="ytick_4" stroke-linecap="butt" stroke-linejoin="round"><g id="line2d_25" stroke-linecap="butt" stroke-linejoin="round"><path d=" M 40.767200 50.397999 L 598.767029 50.397999" stroke="#000000" stroke-width="0.100000" stroke-linecap="round" stroke-linejoin="round" fill="none" clip-path="url(#p6b71788ee2)"/></g><g id="line2d_26" stroke-linecap="butt" stroke-linejoin="round"></g><g id="text_12" stroke-linecap="butt" stroke-linejoin="round"><g stroke-linecap="butt" stroke-linejoin="round" fill="#262626" transform="matrix(0.100000,0.000000,0.000000,-0.100000,26.145300,53.976900)"><use width="100.000000%" height="100.000000%" xlink:href="#ArialMT-55" stroke-linecap="butt" stroke-linejoin="round"></use><use x="55.615200" width="100.000000%" height="100.000000%" xlink:href="#ArialMT-53" stroke-linecap="butt" stroke-linejoin="round"></use></g></g></g><g id="ytick_5" stroke-linecap="butt" stroke-linejoin="round"><g id="line2d_27" stroke-linecap="butt" stroke-linejoin="round"><path d=" M 40.767200 10.778900 L 598.767029 10.778900" stroke="#000000" stroke-width="0.100000" stroke-linecap="round" stroke-linejoin="round" fill="none" clip-path="url(#p6b71788ee2)"/></g><g id="line2d_28" stroke-linecap="butt" stroke-linejoin="round"></g><g id="text_13" stroke-linecap="butt" stroke-linejoin="round"><g stroke-linecap="butt" stroke-linejoin="round" fill="#262626" transform="matrix(0.100000,0.000000,0.000000,-0.100000,20.584400,14.357800)"><use width="100.000000%" height="100.000000%" xlink:href="#ArialMT-49" stroke-linecap="butt" stroke-linejoin="round"></use><use x="55.615200" width="100.000000%" height="100.000000%" xlink:href="#ArialMT-48" stroke-linecap="butt" stroke-linejoin="round"></use><use x="111.230000" width="100.000000%" height="100.000000%" xlink:href="#ArialMT-48" stroke-linecap="butt" stroke-linejoin="round"></use></g></g></g><g id="text_14" stroke-linecap="butt" stroke-linejoin="round"><defs stroke-linecap="butt" stroke-linejoin="round"><path d=" M 7.625000 0.000000 L 7.625000 71.578102 L 17.328100 71.578102 L 54.937500 15.375000 L 54.937500 71.578102 L 64.015602 71.578102 L 64.015602 0.000000 L 54.296902 0.000000 L 16.703100 56.250000 L 16.703100 0.000000 Z" id="ArialMT-78" stroke-linecap="butt" stroke-linejoin="round"/><path d=" M 40.578098 0.000000 L 40.578098 7.625000 C 36.536499 1.760420 31.052099 -1.171880 24.125000 -1.171880 C 21.062500 -1.171880 18.203100 -0.588542 15.546900 0.578125 C 12.901000 1.755210 10.932300 3.229170 9.640620 5.000000 C 8.359380 6.781250 7.458330 8.958330 6.937500 11.531200 C 6.572920 13.250000 6.390620 15.984400 6.390620 19.734400 L 6.390620 51.859402 L 15.187500 51.859402 L 15.187500 23.093800 C 15.187500 18.510401 15.364600 15.416700 15.718800 13.812500 C 16.270800 11.510400 17.442699 9.697920 19.234400 8.375000 C 21.025999 7.052080 23.239599 6.390620 25.875000 6.390620 C 28.510401 6.390620 30.984400 7.067710 33.296902 8.421880 C 35.609402 9.776040 37.244801 11.614600 38.203098 13.937500 C 39.171902 16.270800 39.656200 19.650999 39.656200 24.078100 L 39.656200 51.859402 L 48.437500 51.859402 L 48.437500 0.000000 Z" id="ArialMT-117" stroke-linecap="butt" stroke-linejoin="round"/><path d=" M 6.593750 0.000000 L 6.593750 51.859402 L 14.453100 51.859402 L 14.453100 44.578098 C 16.078100 47.119801 18.239599 49.161499 20.937500 50.703098 C 23.645800 52.255199 26.724001 53.031200 30.171900 53.031200 C 34.015598 53.031200 37.166698 52.234402 39.625000 50.640598 C 42.083302 49.046902 43.817699 46.817699 44.828098 43.953098 C 48.932301 50.005199 54.270802 53.031200 60.843800 53.031200 C 65.989601 53.031200 69.942703 51.604198 72.703102 48.750000 C 75.473999 45.906200 76.859398 41.520802 76.859398 35.593800 L 76.859398 0.000000 L 68.109398 0.000000 L 68.109398 32.671902 C 68.109398 36.182301 67.822899 38.708302 67.250000 40.250000 C 66.687500 41.802101 65.656197 43.046902 64.156197 43.984402 C 62.666698 44.932301 60.911499 45.406200 58.890598 45.406200 C 55.244801 45.406200 52.213501 44.192699 49.796902 41.765598 C 47.390598 39.348999 46.187500 35.468800 46.187500 30.125000 L 46.187500 0.000000 L 37.406200 0.000000 L 37.406200 33.687500 C 37.406200 37.593800 36.687500 40.520802 35.250000 42.468800 C 33.822899 44.427101 31.479200 45.406200 28.218800 45.406200 C 25.750000 45.406200 23.463499 44.755199 21.359400 43.453098 C 19.265600 42.151001 17.744801 40.244801 16.796900 37.734402 C 15.849000 35.234402 15.375000 31.625000 15.375000 26.906200 L 15.375000 0.000000 Z" id="ArialMT-109" stroke-linecap="butt" stroke-linejoin="round"/><path d=" M 14.703100 0.000000 L 6.546880 0.000000 L 6.546880 71.578102 L 15.328100 71.578102 L 15.328100 46.046902 C 19.046900 50.703098 23.786501 53.031200 29.546900 53.031200 C 32.734402 53.031200 35.750000 52.385399 38.593800 51.093800 C 41.447899 49.812500 43.791698 48.005199 45.625000 45.671902 C 47.468800 43.348999 48.911499 40.541698 49.953098 37.250000 C 50.994801 33.968800 51.515598 30.453100 51.515598 26.703100 C 51.515598 17.817699 49.317699 10.947900 44.921902 6.093750 C 40.526001 1.250000 35.255199 -1.171880 29.109400 -1.171880 C 22.984400 -1.171880 18.182301 1.385420 14.703100 6.500000 Z M 14.593800 26.312500 C 14.593800 20.104200 15.442700 15.614600 17.140600 12.843800 C 19.911501 8.322920 23.656200 6.062500 28.375000 6.062500 C 32.208302 6.062500 35.526001 7.729170 38.328098 11.062500 C 41.130199 14.395800 42.531200 19.369801 42.531200 25.984400 C 42.531200 32.755199 41.187500 37.750000 38.500000 40.968800 C 35.812500 44.187500 32.567699 45.796902 28.765600 45.796902 C 24.921900 45.796902 21.599001 44.130199 18.796900 40.796902 C 15.994800 37.463501 14.593800 32.635399 14.593800 26.312500 Z" id="ArialMT-98" stroke-linecap="butt" stroke-linejoin="round"/><path d=" M 42.093800 16.703100 L 51.171902 15.578100 C 49.744801 10.276000 47.093800 6.156250 43.218800 3.218750 C 39.343800 0.291667 34.395802 -1.171880 28.375000 -1.171880 C 20.791700 -1.171880 14.776000 1.161460 10.328100 5.828120 C 5.880210 10.505200 3.656250 17.057301 3.656250 25.484400 C 3.656250 34.213501 5.901040 40.984402 10.390600 45.796902 C 14.890600 50.619801 20.718800 53.031200 27.875000 53.031200 C 34.812500 53.031200 40.479198 50.671902 44.875000 45.953098 C 49.270802 41.234402 51.468800 34.593800 51.468800 26.031200 C 51.468800 25.510401 51.453098 24.729200 51.421902 23.687500 L 12.750000 23.687500 C 13.072900 17.989599 14.682300 13.625000 17.578100 10.593800 C 20.474001 7.572920 24.088499 6.062500 28.421900 6.062500 C 31.640600 6.062500 34.390598 6.906250 36.671902 8.593750 C 38.953098 10.291700 40.760399 12.994800 42.093800 16.703100 Z M 13.234400 30.906200 L 42.187500 30.906200 C 41.802101 35.270802 40.697899 38.541698 38.875000 40.718800 C 36.072899 44.104198 32.442699 45.796902 27.984400 45.796902 C 23.942699 45.796902 20.546900 44.447899 17.796900 41.750000 C 15.046900 39.052101 13.526000 35.437500 13.234400 30.906200 Z" id="ArialMT-101" stroke-linecap="butt" stroke-linejoin="round"/><path d=" M 6.500000 0.000000 L 6.500000 51.859402 L 14.406200 51.859402 L 14.406200 44.000000 C 16.427099 47.677101 18.291700 50.098999 20.000000 51.265598 C 21.708300 52.442699 23.588499 53.031200 25.640600 53.031200 C 28.599001 53.031200 31.609400 52.088501 34.671902 50.203098 L 31.640600 42.046902 C 29.494801 43.317699 27.349001 43.953098 25.203100 43.953098 C 23.275999 43.953098 21.546900 43.375000 20.015600 42.218800 C 18.484400 41.062500 17.395800 39.458302 16.750000 37.406200 C 15.770800 34.281200 15.281200 30.864599 15.281200 27.156200 L 15.281200 0.000000 Z" id="ArialMT-114" stroke-linecap="butt" stroke-linejoin="round"/><path d="" id="ArialMT-32" stroke-linecap="butt" stroke-linejoin="round"/><path d=" M 3.328120 25.921900 C 3.328120 35.526001 5.994790 42.640598 11.328100 47.265598 C 15.786500 51.109402 21.224001 53.031200 27.640600 53.031200 C 34.765598 53.031200 40.588501 50.692699 45.109402 46.015598 C 49.640598 41.348999 51.906200 34.895802 51.906200 26.656200 C 51.906200 19.989599 50.906200 14.739600 48.906200 10.906200 C 46.906200 7.083330 43.989601 4.114580 40.156200 2.000000 C 36.333302 -0.114583 32.161499 -1.171880 27.640600 -1.171880 C 20.380199 -1.171880 14.510400 1.156250 10.031200 5.812500 C 5.562500 10.468800 3.328120 17.171900 3.328120 25.921900 Z M 12.359400 25.921900 C 12.359400 19.286501 13.807300 14.317700 16.703100 11.015600 C 19.599001 7.713540 23.244801 6.062500 27.640600 6.062500 C 32.005199 6.062500 35.635399 7.718750 38.531200 11.031200 C 41.427101 14.354200 42.875000 19.416700 42.875000 26.218800 C 42.875000 32.635399 41.416698 37.494801 38.500000 40.796902 C 35.583302 44.098999 31.963499 45.750000 27.640600 45.750000 C 23.244801 45.750000 19.599001 44.104198 16.703100 40.812500 C 13.807300 37.531200 12.359400 32.567699 12.359400 25.921900 Z" id="ArialMT-111" stroke-linecap="butt" stroke-linejoin="round"/><path d=" M 8.687500 0.000000 L 8.687500 45.015598 L 0.921875 45.015598 L 0.921875 51.859402 L 8.687500 51.859402 L 8.687500 57.375000 C 8.687500 60.854198 9.000000 63.442699 9.625000 65.140602 C 10.468800 67.421898 11.953100 69.265602 14.078100 70.671898 C 16.213499 72.088501 19.203100 72.796898 23.046900 72.796898 C 25.525999 72.796898 28.260401 72.505203 31.250000 71.921898 L 29.937500 64.265602 C 28.114599 64.588501 26.385401 64.750000 24.750000 64.750000 C 22.083300 64.750000 20.197901 64.177101 19.093800 63.031200 C 17.989599 61.895802 17.437500 59.765598 17.437500 56.640598 L 17.437500 51.859402 L 27.546900 51.859402 L 27.546900 45.015598 L 17.437500 45.015598 L 17.437500 0.000000 Z" id="ArialMT-102" stroke-linecap="butt" stroke-linejoin="round"/><path d=" M 40.437500 19.000000 L 49.078098 17.875000 C 48.130199 11.916700 45.708302 7.250000 41.812500 3.875000 C 37.927101 0.510417 33.151001 -1.171880 27.484400 -1.171880 C 20.390600 -1.171880 14.687500 1.145830 10.375000 5.781250 C 6.062500 10.427100 3.906250 17.078100 3.906250 25.734400 C 3.906250 31.328100 4.833330 36.223999 6.687500 40.421902 C 8.541670 44.630199 11.364600 47.781200 15.156200 49.875000 C 18.947901 51.979198 23.078100 53.031200 27.546900 53.031200 C 33.171902 53.031200 37.776001 51.604198 41.359402 48.750000 C 44.942699 45.906200 47.239601 41.864601 48.250000 36.625000 L 39.703098 35.296902 C 38.890598 38.786499 37.447899 41.406200 35.375000 43.156200 C 33.312500 44.916698 30.812500 45.796902 27.875000 45.796902 C 23.447901 45.796902 19.849001 44.208302 17.078100 41.031200 C 14.317700 37.864601 12.937500 32.848999 12.937500 25.984400 C 12.937500 19.015600 14.270800 13.953100 16.937500 10.796900 C 19.614599 7.640620 23.099001 6.062500 27.390600 6.062500 C 30.838499 6.062500 33.718800 7.119790 36.031200 9.234380 C 38.343800 11.349000 39.812500 14.604200 40.437500 19.000000 Z" id="ArialMT-99" stroke-linecap="butt" stroke-linejoin="round"/><path d=" M 6.593750 0.000000 L 6.593750 51.859402 L 14.500000 51.859402 L 14.500000 44.484402 C 18.312500 50.182301 23.812500 53.031200 31.000000 53.031200 C 34.125000 53.031200 37.000000 52.468800 39.625000 51.343800 C 42.250000 50.218800 44.213501 48.744801 45.515598 46.921902 C 46.817699 45.098999 47.729198 42.937500 48.250000 40.437500 C 48.572899 38.802101 48.734402 35.953098 48.734402 31.890600 L 48.734402 0.000000 L 39.937500 0.000000 L 39.937500 31.546900 C 39.937500 35.130199 39.593800 37.807301 38.906200 39.578098 C 38.229198 41.348999 37.020802 42.760399 35.281200 43.812500 C 33.541698 44.875000 31.500000 45.406200 29.156200 45.406200 C 25.406200 45.406200 22.171900 44.218800 19.453100 41.843800 C 16.734400 39.468800 15.375000 34.963501 15.375000 28.328100 L 15.375000 0.000000 Z" id="ArialMT-110" stroke-linecap="butt" stroke-linejoin="round"/><path d=" M 25.781200 7.859380 L 27.046900 0.093750 C 24.578100 -0.427083 22.364599 -0.687500 20.406200 -0.687500 C 17.218800 -0.687500 14.744800 -0.182292 12.984400 0.828125 C 11.234400 1.838540 10.000000 3.166670 9.281250 4.812500 C 8.562500 6.458330 8.203120 9.916670 8.203120 15.187500 L 8.203120 45.015598 L 1.765620 45.015598 L 1.765620 51.859402 L 8.203120 51.859402 L 8.203120 64.703102 L 16.937500 69.968803 L 16.937500 51.859402 L 25.781200 51.859402 L 25.781200 45.015598 L 16.937500 45.015598 L 16.937500 14.703100 C 16.937500 12.192700 17.093800 10.578100 17.406200 9.859380 C 17.718800 9.151040 18.224001 8.583330 18.921900 8.156250 C 19.619801 7.729170 20.619801 7.515620 21.921900 7.515620 C 22.900999 7.515620 24.187500 7.630210 25.781200 7.859380 Z" id="ArialMT-116" stroke-linecap="butt" stroke-linejoin="round"/><path d=" M 3.078120 15.484400 L 11.765600 16.843800 C 12.255200 13.364600 13.614600 10.697900 15.843800 8.843750 C 18.072901 6.989580 21.192699 6.062500 25.203100 6.062500 C 29.234400 6.062500 32.223999 6.880210 34.171902 8.515620 C 36.130199 10.161500 37.109402 12.093800 37.109402 14.312500 C 37.109402 16.291700 36.244801 17.854200 34.515598 19.000000 C 33.317699 19.781200 30.322901 20.770800 25.531200 21.968800 C 19.093800 23.604200 14.630200 25.015600 12.140600 26.203100 C 9.651040 27.390600 7.760420 29.031200 6.468750 31.125000 C 5.187500 33.229198 4.546880 35.552101 4.546880 38.093800 C 4.546880 40.395802 5.072920 42.531200 6.125000 44.500000 C 7.187500 46.479198 8.630210 48.119801 10.453100 49.421902 C 11.817700 50.421902 13.677100 51.270802 16.031200 51.968800 C 18.395800 52.677101 20.932301 53.031200 23.640600 53.031200 C 27.703100 53.031200 31.270800 52.442699 34.343800 51.265598 C 37.427101 50.098999 39.697899 48.510399 41.156200 46.500000 C 42.625000 44.500000 43.635399 41.828098 44.187500 38.484402 L 35.593800 37.312500 C 35.208302 39.979198 34.078098 42.057301 32.203098 43.546902 C 30.328100 45.046902 27.682301 45.796902 24.265600 45.796902 C 20.234400 45.796902 17.354200 45.130199 15.625000 43.796902 C 13.895800 42.463501 13.031200 40.901001 13.031200 39.109402 C 13.031200 37.973999 13.390600 36.947899 14.109400 36.031200 C 14.828100 35.093800 15.953100 34.312500 17.484400 33.687500 C 18.359400 33.364601 20.947901 32.619801 25.250000 31.453100 C 31.468800 29.786501 35.802101 28.421900 38.250000 27.359400 C 40.708302 26.307301 42.635399 24.770800 44.031200 22.750000 C 45.437500 20.739599 46.140598 18.234400 46.140598 15.234400 C 46.140598 12.307300 45.286499 9.546880 43.578098 6.953120 C 41.869801 4.369790 39.401001 2.369790 36.171902 0.953125 C 32.953098 -0.463542 29.312500 -1.171880 25.250000 -1.171880 C 18.510401 -1.171880 13.375000 0.229167 9.843750 3.031250 C 6.312500 5.833330 4.057290 9.984380 3.078120 15.484400 Z" id="ArialMT-115" stroke-linecap="butt" stroke-linejoin="round"/><path d=" M 23.390600 -21.046900 C 18.536501 -14.921900 14.432300 -7.760420 11.078100 0.437500 C 7.734380 8.645830 6.062500 17.140600 6.062500 25.921900 C 6.062500 33.671902 7.312500 41.093800 9.812500 48.187500 C 12.739600 56.427101 17.265600 64.630203 23.390600 72.796898 L 29.687500 72.796898 C 25.750000 66.026001 23.145800 61.192699 21.875000 58.296902 C 19.885401 53.807301 18.322901 49.119801 17.187500 44.234402 C 15.791700 38.151001 15.093800 32.031200 15.093800 25.875000 C 15.093800 10.218800 19.958300 -5.421880 29.687500 -21.046900 Z" id="ArialMT-40" stroke-linecap="butt" stroke-linejoin="round"/><path d=" M 21.000000 0.000000 L 1.265620 51.859402 L 10.546900 51.859402 L 21.687500 20.796900 C 22.885401 17.442699 23.989599 13.963500 25.000000 10.359400 C 25.781200 13.088500 26.869801 16.375000 28.265600 20.218800 L 39.796902 51.859402 L 48.828098 51.859402 L 29.203100 0.000000 Z" id="ArialMT-118" stroke-linecap="butt" stroke-linejoin="round"/><path d=" M 6.390620 0.000000 L 6.390620 71.578102 L 15.187500 71.578102 L 15.187500 0.000000 Z" id="ArialMT-108" stroke-linecap="butt" stroke-linejoin="round"/><path d=" M 5.812500 54.390598 C 5.812500 59.505199 7.098960 63.848999 9.671880 67.421898 C 12.244800 71.005203 15.968800 72.796898 20.843800 72.796898 C 25.343800 72.796898 29.062500 71.192703 32.000000 67.984398 C 34.947899 64.786499 36.421902 60.078098 36.421902 53.859402 C 36.421902 47.807301 34.932301 43.145802 31.953100 39.875000 C 28.974001 36.604198 25.307301 34.968800 20.953100 34.968800 C 16.619801 34.968800 13.010400 36.578098 10.125000 39.796902 C 7.250000 43.015598 5.812500 47.880199 5.812500 54.390598 Z M 21.093800 66.750000 C 18.916700 66.750000 17.104200 65.802101 15.656200 63.906200 C 14.208300 62.020802 13.484400 58.557301 13.484400 53.515598 C 13.484400 48.921902 14.213500 45.687500 15.671900 43.812500 C 17.140600 41.947899 18.947901 41.015598 21.093800 41.015598 C 23.312500 41.015598 25.145800 41.958302 26.593800 43.843800 C 28.041700 45.739601 28.765600 49.192699 28.765600 54.203098 C 28.765600 58.828098 28.031200 62.072899 26.562500 63.937500 C 25.093800 65.812500 23.270800 66.750000 21.093800 66.750000 Z M 21.140600 -2.640620 L 60.296902 72.796898 L 67.437500 72.796898 L 28.421900 -2.640620 Z M 52.093800 16.796900 C 52.093800 21.942699 53.380199 26.296900 55.953098 29.859400 C 58.526001 33.421902 62.270802 35.203098 67.187500 35.203098 C 71.677101 35.203098 75.395798 33.598999 78.343803 30.390600 C 81.291702 27.192699 82.765602 22.484400 82.765602 16.265600 C 82.765602 10.203100 81.276001 5.536460 78.296898 2.265620 C 75.317703 -1.005210 71.630203 -2.640620 67.234398 -2.640620 C 62.911499 -2.640620 59.307301 -1.020830 56.421902 2.218750 C 53.536499 5.458330 52.093800 10.317700 52.093800 16.796900 Z M 67.437500 29.156200 C 65.218803 29.156200 63.385399 28.208300 61.937500 26.312500 C 60.489601 24.427099 59.765598 20.963499 59.765598 15.921900 C 59.765598 11.359400 60.494801 8.135420 61.953098 6.250000 C 63.421902 4.364580 65.234398 3.421880 67.390602 3.421880 C 69.630203 3.421880 71.473999 4.364580 72.921898 6.250000 C 74.369797 8.135420 75.093803 11.588500 75.093803 16.609400 C 75.093803 21.224001 74.359398 24.468800 72.890602 26.343800 C 71.432297 28.218800 69.614601 29.156200 67.437500 29.156200 Z" id="ArialMT-37" stroke-linecap="butt" stroke-linejoin="round"/><path d=" M 12.359400 -21.046900 L 6.062500 -21.046900 C 15.791700 -5.421880 20.656200 10.218800 20.656200 25.875000 C 20.656200 32.000000 19.958300 38.072899 18.562500 44.093800 C 17.447901 48.979198 15.901000 53.666698 13.921900 58.156200 C 12.651000 61.083302 10.031200 65.963501 6.062500 72.796898 L 12.359400 72.796898 C 18.474001 64.630203 22.994801 56.427101 25.921900 48.187500 C 28.432301 41.093800 29.687500 33.671902 29.687500 25.921900 C 29.687500 17.140600 28.000000 8.645830 24.625000 0.437500 C 21.260401 -7.760420 17.171900 -14.921900 12.359400 -21.046900 Z" id="ArialMT-41" stroke-linecap="butt" stroke-linejoin="round"/></defs><g stroke-linecap="butt" stroke-linejoin="round" fill="#262626" transform="matrix(0.000000,-0.100000,-0.100000,-0.000000,14.479700,147.216000)"><use width="100.000000%" height="100.000000%" xlink:href="#ArialMT-78" stroke-linecap="butt" stroke-linejoin="round"></use><use x="72.216800" width="100.000000%" height="100.000000%" xlink:href="#ArialMT-117" stroke-linecap="butt" stroke-linejoin="round"></use><use x="127.832000" width="100.000000%" height="100.000000%" xlink:href="#ArialMT-109" stroke-linecap="butt" stroke-linejoin="round"></use><use x="211.133000" width="100.000000%" height="100.000000%" xlink:href="#ArialMT-98" stroke-linecap="butt" stroke-linejoin="round"></use><use x="266.748000" width="100.000000%" height="100.000000%" xlink:href="#ArialMT-101" stroke-linecap="butt" stroke-linejoin="round"></use><use x="322.363000" width="100.000000%" height="100.000000%" xlink:href="#ArialMT-114" stroke-linecap="butt" stroke-linejoin="round"></use><use x="355.664000" width="100.000000%" height="100.000000%" xlink:href="#ArialMT-32" stroke-linecap="butt" stroke-linejoin="round"></use><use x="383.447000" width="100.000000%" height="100.000000%" xlink:href="#ArialMT-111" stroke-linecap="butt" stroke-linejoin="round"></use><use x="439.062000" width="100.000000%" height="100.000000%" xlink:href="#ArialMT-102" stroke-linecap="butt" stroke-linejoin="round"></use><use x="466.846000" width="100.000000%" height="100.000000%" xlink:href="#ArialMT-32" stroke-linecap="butt" stroke-linejoin="round"></use><use x="494.629000" width="100.000000%" height="100.000000%" xlink:href="#ArialMT-99" stroke-linecap="butt" stroke-linejoin="round"></use><use x="544.629000" width="100.000000%" height="100.000000%" xlink:href="#ArialMT-111" stroke-linecap="butt" stroke-linejoin="round"></use><use x="600.244000" width="100.000000%" height="100.000000%" xlink:href="#ArialMT-117" stroke-linecap="butt" stroke-linejoin="round"></use><use x="655.859000" width="100.000000%" height="100.000000%" xlink:href="#ArialMT-110" stroke-linecap="butt" stroke-linejoin="round"></use><use x="711.475000" width="100.000000%" height="100.000000%" xlink:href="#ArialMT-116" stroke-linecap="butt" stroke-linejoin="round"></use><use x="739.258000" width="100.000000%" height="100.000000%" xlink:href="#ArialMT-115" stroke-linecap="butt" stroke-linejoin="round"></use><use x="789.258000" width="100.000000%" height="100.000000%" xlink:href="#ArialMT-32" stroke-linecap="butt" stroke-linejoin="round"></use><use x="817.041000" width="100.000000%" height="100.000000%" xlink:href="#ArialMT-40" stroke-linecap="butt" stroke-linejoin="round"></use><use x="850.342000" width="100.000000%" height="100.000000%" xlink:href="#ArialMT-118" stroke-linecap="butt" stroke-linejoin="round"></use><use x="900.342000" width="100.000000%" height="100.000000%" xlink:href="#ArialMT-111" stroke-linecap="butt" stroke-linejoin="round"></use><use x="955.957000" width="100.000000%" height="100.000000%" xlink:href="#ArialMT-108" stroke-linecap="butt" stroke-linejoin="round"></use><use x="978.174000" width="100.000000%" height="100.000000%" xlink:href="#ArialMT-37" stroke-linecap="butt" stroke-linejoin="round"></use><use x="1067.090000" width="100.000000%" height="100.000000%" xlink:href="#ArialMT-41" stroke-linecap="butt" stroke-linejoin="round"></use></g></g></g><g id="PolyCollection_1" stroke-linecap="butt" stroke-linejoin="round"><defs stroke-linecap="butt" stroke-linejoin="round"><path d=" M 66.130798 -109.666000 L 66.130798 -92.597504 L 87.267197 -110.732002 L 104.176003 -96.199097 L 105.233002 -96.199097 L 167.585007 -62.719200 L 392.687988 -72.807198 L 464.550995 -178.266006 L 499.425995 -107.811996 L 573.403992 -97.643799 L 573.403992 -115.712997 L 573.403992 -115.712997 L 499.425995 -127.732002 L 464.550995 -207.830002 L 392.687988 -85.082802 L 167.585007 -71.399300 L 105.233002 -113.987999 L 104.176003 -113.987999 L 87.267197 -131.149994 L 66.130798 -109.666000 Z" id="mf73630e5c2" stroke="#FF0000" stroke-linecap="butt" stroke-linejoin="round" stroke-opacity="0.100000"/></defs><g stroke-linecap="butt" stroke-linejoin="round" clip-path="url(#p6b71788ee2)"><use y="224.429000" width="100.000000%" height="100.000000%" xlink:href="#mf73630e5c2" stroke="#FF0000" stroke-linecap="butt" stroke-linejoin="round" stroke-opacity="0.100000" fill="#FF0000" fill-opacity="0.100000"></use></g></g><g id="PolyCollection_2" stroke-linecap="butt" stroke-linejoin="round"><defs stroke-linecap="butt" stroke-linejoin="round"><path d=" M 66.130798 -136.266998 L 66.130798 -115.124001 L 87.267197 -91.161102 L 104.176003 -100.540001 L 105.233002 -107.811996 L 167.585007 -132.061005 L 392.687988 -134.279999 L 464.550995 -60.800301 L 499.425995 -112.195000 L 573.403992 -115.124001 L 573.403992 -136.266998 L 573.403992 -136.266998 L 499.425995 -132.856995 L 464.550995 -68.564003 L 392.687988 -158.315002 L 167.585007 -155.779999 L 105.233002 -127.732002 L 104.176003 -119.155998 L 87.267197 -107.932999 L 66.130798 -136.266998 Z" id="m171762fde6" stroke="#006400" stroke-linecap="butt" stroke-linejoin="round" stroke-opacity="0.100000"/></defs><g stroke-linecap="butt" stroke-linejoin="round" clip-path="url(#p6b71788ee2)"><use y="224.429000" width="100.000000%" height="100.000000%" xlink:href="#m171762fde6" stroke="#006400" stroke-linecap="butt" stroke-linejoin="round" stroke-opacity="0.100000" fill="#006400" fill-opacity="0.100000"></use></g></g><g id="PolyCollection_3" stroke-linecap="butt" stroke-linejoin="round"><defs stroke-linecap="butt" stroke-linejoin="round"><path d=" M 66.130798 -87.759499 L 66.130798 -74.884804 L 87.267197 -68.700897 L 104.176003 -85.444099 L 105.233002 -64.682098 L 167.585007 -88.296700 L 392.687988 -77.675301 L 464.550995 -56.629700 L 499.425995 -62.074001 L 573.403992 -62.074001 L 573.403992 -70.459801 L 573.403992 -70.459801 L 499.425995 -70.459801 L 464.550995 -61.641201 L 392.687988 -91.307999 L 167.585007 -104.458000 L 105.233002 -74.190697 L 104.176003 -100.972000 L 87.267197 -79.680496 L 66.130798 -87.759499 Z" id="mefafc43be4" stroke="#DAA520" stroke-linecap="butt" stroke-linejoin="round" stroke-opacity="0.100000"/></defs><g stroke-linecap="butt" stroke-linejoin="round" clip-path="url(#p6b71788ee2)"><use y="224.429000" width="100.000000%" height="100.000000%" xlink:href="#mefafc43be4" stroke="#DAA520" stroke-linecap="butt" stroke-linejoin="round" stroke-opacity="0.100000" fill="#DAA520" fill-opacity="0.100000"></use></g></g><g id="PolyCollection_4" stroke-linecap="butt" stroke-linejoin="round"><defs stroke-linecap="butt" stroke-linejoin="round"><path d=" M 66.130798 -76.032600 L 66.130798 -66.009697 L 87.267197 -77.675301 L 104.176003 -66.009697 L 105.233002 -79.781502 L 167.585007 -66.678299 L 392.687988 -64.682098 L 464.550995 -58.943199 L 499.425995 -67.349899 L 573.403992 -74.190697 L 573.403992 -86.868797 L 573.403992 -86.868797 L 499.425995 -77.862000 L 464.550995 -65.666801 L 392.687988 -74.190697 L 167.585007 -76.948799 L 105.233002 -93.956100 L 104.176003 -76.032600 L 87.267197 -91.307999 L 66.130798 -76.032600 Z" id="ma059fad3c1" stroke="#0000FF" stroke-linecap="butt" stroke-linejoin="round" stroke-opacity="0.100000"/></defs><g stroke-linecap="butt" stroke-linejoin="round" clip-path="url(#p6b71788ee2)"><use y="224.429000" width="100.000000%" height="100.000000%" xlink:href="#ma059fad3c1" stroke="#0000FF" stroke-linecap="butt" stroke-linejoin="round" stroke-opacity="0.100000" fill="#0000FF" fill-opacity="0.100000"></use></g></g><g id="line2d_29" stroke-linecap="butt" stroke-linejoin="round"><path d=" M 66.130798 123.296997 L 87.267197 103.487999 L 104.176003 119.334999 L 105.233002 119.334999 L 167.585007 157.369995 L 392.687988 145.483994 L 464.550995 31.380800 L 499.425995 106.656998 L 573.403992 117.750000" stroke="#FF0000" stroke-width="0.500000" stroke-linecap="round" stroke-linejoin="round" fill="none" clip-path="url(#p6b71788ee2)"/></g><g id="line2d_30" stroke-linecap="butt" stroke-linejoin="round"><path d=" M 66.130798 98.733299 L 87.267197 124.882004 L 104.176003 114.581001 L 105.233002 106.656998 L 167.585007 80.508499 L 392.687988 78.131401 L 464.550995 159.746994 L 499.425995 101.903000 L 573.403992 98.733299" stroke="#006400" stroke-width="0.500000" stroke-linecap="round" stroke-linejoin="round" fill="none" clip-path="url(#p6b71788ee2)"/></g><g id="line2d_31" stroke-linecap="butt" stroke-linejoin="round"><path d=" M 66.130798 143.106995 L 87.267197 150.238007 L 104.176003 131.220993 L 105.233002 154.992004 L 167.585007 128.050995 L 392.687988 139.936996 L 464.550995 165.292999 L 499.425995 158.162003 L 573.403992 158.162003" stroke="#DAA520" stroke-width="0.500000" stroke-linecap="round" stroke-linejoin="round" fill="none" clip-path="url(#p6b71788ee2)"/></g><g id="line2d_32" stroke-linecap="butt" stroke-linejoin="round"><path d=" M 66.130798 153.408005 L 87.267197 139.936996 L 104.176003 153.408005 L 105.233002 137.559998 L 167.585007 152.615005 L 392.687988 154.992004 L 464.550995 162.123993 L 499.425995 151.822998 L 573.403992 143.899002" stroke="#0000FF" stroke-width="0.500000" stroke-linecap="round" stroke-linejoin="round" fill="none" clip-path="url(#p6b71788ee2)"/></g><g id="patch_3" stroke-linecap="butt" stroke-linejoin="round"><path d=" M 40.767200 175.358994 L 40.767200 9.039140" stroke="#262626" stroke-width="1.250000" stroke-linecap="square" stroke-linejoin="miter" fill="none"/></g><g id="patch_4" stroke-linecap="butt" stroke-linejoin="round"><path d=" M 40.767200 175.358994 L 598.767029 175.358994" stroke="#262626" stroke-width="1.250000" stroke-linecap="square" stroke-linejoin="miter" fill="none"/></g><g id="legend_1" stroke-linecap="butt" stroke-linejoin="round"><g id="line2d_33" stroke-linecap="butt" stroke-linejoin="round"><path d=" M 608.346985 56.673302 L 628.346985 56.673302" stroke="#FF0000" stroke-width="0.500000" stroke-linecap="round" stroke-linejoin="round" fill="none"/></g><g id="line2d_34" stroke-linecap="butt" stroke-linejoin="round"></g><g id="text_15" stroke-linecap="butt" stroke-linejoin="round"><defs stroke-linecap="butt" stroke-linejoin="round"><path d=" M 6.546880 61.375000 L 6.546880 71.578102 L 15.328100 71.578102 L 15.328100 61.375000 Z M -4.593750 -20.125000 L -2.937500 -12.640600 C -1.177080 -13.099000 0.208333 -13.328100 1.218750 -13.328100 C 3.010420 -13.328100 4.343750 -12.734400 5.218750 -11.546900 C 6.104170 -10.359400 6.546880 -7.390620 6.546880 -2.640620 L 6.546880 51.859402 L 15.328100 51.859402 L 15.328100 -2.828120 C 15.328100 -9.213540 14.500000 -13.656200 12.843800 -16.156200 C 10.729200 -19.416700 7.213540 -21.046900 2.296880 -21.046900 C -0.078125 -21.046900 -2.375000 -20.739599 -4.593750 -20.125000 Z" id="ArialMT-106" stroke-linecap="butt" stroke-linejoin="round"/><path d=" M 6.640620 61.468800 L 6.640620 71.578102 L 15.437500 71.578102 L 15.437500 61.468800 Z M 6.640620 0.000000 L 6.640620 51.859402 L 15.437500 51.859402 L 15.437500 0.000000 Z" id="ArialMT-105" stroke-linecap="butt" stroke-linejoin="round"/></defs><g stroke-linecap="butt" stroke-linejoin="round" fill="#262626" transform="matrix(0.100000,0.000000,0.000000,-0.100000,636.347000,60.173300)"><use width="100.000000%" height="100.000000%" xlink:href="#ArialMT-106" stroke-linecap="butt" stroke-linejoin="round"></use><use x="22.216800" width="100.000000%" height="100.000000%" xlink:href="#ArialMT-117" stroke-linecap="butt" stroke-linejoin="round"></use><use x="77.832000" width="100.000000%" height="100.000000%" xlink:href="#ArialMT-118" stroke-linecap="butt" stroke-linejoin="round"></use><use x="127.832000" width="100.000000%" height="100.000000%" xlink:href="#ArialMT-101" stroke-linecap="butt" stroke-linejoin="round"></use><use x="183.447000" width="100.000000%" height="100.000000%" xlink:href="#ArialMT-110" stroke-linecap="butt" stroke-linejoin="round"></use><use x="239.062000" width="100.000000%" height="100.000000%" xlink:href="#ArialMT-105" stroke-linecap="butt" stroke-linejoin="round"></use><use x="261.279000" width="100.000000%" height="100.000000%" xlink:href="#ArialMT-108" stroke-linecap="butt" stroke-linejoin="round"></use><use x="283.496000" width="100.000000%" height="100.000000%" xlink:href="#ArialMT-101" stroke-linecap="butt" stroke-linejoin="round"></use></g></g><g id="line2d_35" stroke-linecap="butt" stroke-linejoin="round"><path d=" M 608.346985 70.935799 L 628.346985 70.935799" stroke="#006400" stroke-width="0.500000" stroke-linecap="round" stroke-linejoin="round" fill="none"/></g><g id="line2d_36" stroke-linecap="butt" stroke-linejoin="round"></g><g id="text_16" stroke-linecap="butt" stroke-linejoin="round"><defs stroke-linecap="butt" stroke-linejoin="round"><path d=" M 6.593750 0.000000 L 6.593750 71.578102 L 15.375000 71.578102 L 15.375000 45.906200 C 19.479200 50.656200 24.656200 53.031200 30.906200 53.031200 C 34.750000 53.031200 38.088501 52.270802 40.921902 50.750000 C 43.755199 49.239601 45.781200 47.151001 47.000000 44.484402 C 48.218800 41.817699 48.828098 37.942699 48.828098 32.859402 L 48.828098 0.000000 L 40.046902 0.000000 L 40.046902 32.859402 C 40.046902 37.255199 39.093800 40.453098 37.187500 42.453098 C 35.281200 44.453098 32.588501 45.453098 29.109400 45.453098 C 26.505199 45.453098 24.052099 44.776001 21.750000 43.421902 C 19.458300 42.078098 17.822901 40.250000 16.843800 37.937500 C 15.864600 35.625000 15.375000 32.437500 15.375000 28.375000 L 15.375000 0.000000 Z" id="ArialMT-104" stroke-linecap="butt" stroke-linejoin="round"/></defs><g stroke-linecap="butt" stroke-linejoin="round" fill="#262626" transform="matrix(0.100000,0.000000,0.000000,-0.100000,636.347000,74.435800)"><use width="100.000000%" height="100.000000%" xlink:href="#ArialMT-108" stroke-linecap="butt" stroke-linejoin="round"></use><use x="22.216800" width="100.000000%" height="100.000000%" xlink:href="#ArialMT-105" stroke-linecap="butt" stroke-linejoin="round"></use><use x="44.433600" width="100.000000%" height="100.000000%" xlink:href="#ArialMT-116" stroke-linecap="butt" stroke-linejoin="round"></use><use x="72.216800" width="100.000000%" height="100.000000%" xlink:href="#ArialMT-104" stroke-linecap="butt" stroke-linejoin="round"></use><use x="127.832000" width="100.000000%" height="100.000000%" xlink:href="#ArialMT-105" stroke-linecap="butt" stroke-linejoin="round"></use><use x="150.049000" width="100.000000%" height="100.000000%" xlink:href="#ArialMT-99" stroke-linecap="butt" stroke-linejoin="round"></use></g></g><g id="line2d_37" stroke-linecap="butt" stroke-linejoin="round"><path d=" M 608.346985 85.081100 L 628.346985 85.081100" stroke="#DAA520" stroke-width="0.500000" stroke-linecap="round" stroke-linejoin="round" fill="none"/></g><g id="line2d_38" stroke-linecap="butt" stroke-linejoin="round"></g><g id="text_17" stroke-linecap="butt" stroke-linejoin="round"><defs stroke-linecap="butt" stroke-linejoin="round"><path d=" M 40.437500 6.390620 C 37.177101 3.630210 34.041698 1.677080 31.031200 0.531250 C 28.020800 -0.604167 24.791700 -1.171880 21.343800 -1.171880 C 15.645800 -1.171880 11.265600 0.218750 8.203120 3.000000 C 5.140620 5.781250 3.609380 9.338540 3.609380 13.671900 C 3.609380 16.213499 4.187500 18.531200 5.343750 20.625000 C 6.500000 22.729200 8.015620 24.416700 9.890620 25.687500 C 11.765600 26.958300 13.875000 27.916700 16.218800 28.562500 C 17.937500 29.020800 20.541700 29.463499 24.031200 29.890600 C 31.125000 30.734400 36.348999 31.739599 39.703098 32.906200 C 39.734402 34.114601 39.750000 34.880199 39.750000 35.203098 C 39.750000 38.786499 38.916698 41.312500 37.250000 42.781200 C 35.010399 44.760399 31.677099 45.750000 27.250000 45.750000 C 23.114599 45.750000 20.062500 45.026001 18.093800 43.578098 C 16.125000 42.130199 14.666700 39.567699 13.718800 35.890598 L 5.125000 37.062500 C 5.906250 40.739601 7.192710 43.708302 8.984380 45.968800 C 10.776000 48.229198 13.364600 49.968800 16.750000 51.187500 C 20.135401 52.416698 24.057301 53.031200 28.515600 53.031200 C 32.942699 53.031200 36.536499 52.510399 39.296902 51.468800 C 42.067699 50.427101 44.104198 49.114601 45.406200 47.531200 C 46.708302 45.958302 47.619801 43.963501 48.140598 41.546902 C 48.432301 40.057301 48.578098 37.359402 48.578098 33.453098 L 48.578098 21.734400 C 48.578098 13.557300 48.765598 8.385420 49.140598 6.218750 C 49.515598 4.062500 50.260399 1.989580 51.375000 0.000000 L 42.187500 0.000000 C 41.281200 1.822920 40.697899 3.953120 40.437500 6.390620 Z M 39.703098 26.031200 C 36.505199 24.729200 31.718800 23.619801 25.343800 22.703100 C 21.729200 22.182301 19.171900 21.593800 17.671900 20.937500 C 16.182301 20.291700 15.026000 19.343800 14.203100 18.093800 C 13.390600 16.843800 12.984400 15.453100 12.984400 13.921900 C 12.984400 11.578100 13.869800 9.625000 15.640600 8.062500 C 17.421900 6.500000 20.020800 5.718750 23.437500 5.718750 C 26.822901 5.718750 29.833300 6.458330 32.468800 7.937500 C 35.104198 9.416670 37.041698 11.442700 38.281200 14.015600 C 39.229198 16.005199 39.703098 18.932301 39.703098 22.796900 Z" id="ArialMT-97" stroke-linecap="butt" stroke-linejoin="round"/><path d=" M 40.234402 0.000000 L 40.234402 6.546880 C 36.942699 1.401040 32.109402 -1.171880 25.734400 -1.171880 C 21.599001 -1.171880 17.796900 -0.031250 14.328100 2.250000 C 10.859400 4.531250 8.171880 7.713540 6.265620 11.796900 C 4.369790 15.880200 3.421880 20.572901 3.421880 25.875000 C 3.421880 31.052099 4.281250 35.750000 6.000000 39.968800 C 7.729170 44.187500 10.317700 47.416698 13.765600 49.656200 C 17.224001 51.906200 21.083300 53.031200 25.343800 53.031200 C 28.468800 53.031200 31.250000 52.369801 33.687500 51.046902 C 36.135399 49.734402 38.125000 48.020802 39.656200 45.906200 L 39.656200 71.578102 L 48.390598 71.578102 L 48.390598 0.000000 Z M 12.453100 25.875000 C 12.453100 19.239599 13.849000 14.276000 16.640600 10.984400 C 19.442699 7.703120 22.750000 6.062500 26.562500 6.062500 C 30.406200 6.062500 33.666698 7.630210 36.343800 10.765600 C 39.031200 13.911500 40.375000 18.703100 40.375000 25.140600 C 40.375000 32.244801 39.005199 37.453098 36.265598 40.765598 C 33.536499 44.088501 30.171900 45.750000 26.171900 45.750000 C 22.265600 45.750000 19.000000 44.156200 16.375000 40.968800 C 13.760400 37.781200 12.453100 32.750000 12.453100 25.875000 Z" id="ArialMT-100" stroke-linecap="butt" stroke-linejoin="round"/></defs><g stroke-linecap="butt" stroke-linejoin="round" fill="#262626" transform="matrix(0.100000,0.000000,0.000000,-0.100000,636.347000,88.581100)"><use width="100.000000%" height="100.000000%" xlink:href="#ArialMT-97" stroke-linecap="butt" stroke-linejoin="round"></use><use x="55.615200" width="100.000000%" height="100.000000%" xlink:href="#ArialMT-108" stroke-linecap="butt" stroke-linejoin="round"></use><use x="77.832000" width="100.000000%" height="100.000000%" xlink:href="#ArialMT-116" stroke-linecap="butt" stroke-linejoin="round"></use><use x="105.615000" width="100.000000%" height="100.000000%" xlink:href="#ArialMT-101" stroke-linecap="butt" stroke-linejoin="round"></use><use x="161.230000" width="100.000000%" height="100.000000%" xlink:href="#ArialMT-114" stroke-linecap="butt" stroke-linejoin="round"></use><use x="194.531000" width="100.000000%" height="100.000000%" xlink:href="#ArialMT-101" stroke-linecap="butt" stroke-linejoin="round"></use><use x="250.146000" width="100.000000%" height="100.000000%" xlink:href="#ArialMT-100" stroke-linecap="butt" stroke-linejoin="round"></use></g></g><g id="line2d_39" stroke-linecap="butt" stroke-linejoin="round"><path d=" M 608.346985 99.226501 L 628.346985 99.226501" stroke="#0000FF" stroke-width="0.500000" stroke-linecap="round" stroke-linejoin="round" fill="none"/></g><g id="line2d_40" stroke-linecap="butt" stroke-linejoin="round"></g><g id="text_18" stroke-linecap="butt" stroke-linejoin="round"><defs stroke-linecap="butt" stroke-linejoin="round"><path d=" M 6.203120 -19.968800 L 5.218750 -11.718800 C 7.145830 -12.239600 8.822920 -12.500000 10.250000 -12.500000 C 12.208300 -12.500000 13.770800 -12.171900 14.937500 -11.515600 C 16.114599 -10.869800 17.078100 -9.963540 17.828100 -8.796880 C 18.380199 -7.911460 19.275999 -5.729170 20.515600 -2.250000 C 20.671900 -1.760420 20.932301 -1.041670 21.296900 -0.093750 L 1.609380 51.859402 L 11.078100 51.859402 L 21.875000 21.828100 C 23.270800 18.015600 24.525999 14.010400 25.640600 9.812500 C 26.650999 13.854200 27.854200 17.791700 29.250000 21.625000 L 40.328098 51.859402 L 49.125000 51.859402 L 29.390600 -0.875000 C 27.275999 -6.572920 25.635401 -10.494800 24.468800 -12.640600 C 22.906200 -15.546900 21.114599 -17.671900 19.093800 -19.015600 C 17.072901 -20.369801 14.661500 -21.046900 11.859400 -21.046900 C 10.171900 -21.046900 8.286460 -20.687500 6.203120 -19.968800 Z" id="ArialMT-121" stroke-linecap="butt" stroke-linejoin="round"/></defs><g stroke-linecap="butt" stroke-linejoin="round" fill="#262626" transform="matrix(0.100000,0.000000,0.000000,-0.100000,636.347000,102.726000)"><use width="100.000000%" height="100.000000%" xlink:href="#ArialMT-99" stroke-linecap="butt" stroke-linejoin="round"></use><use x="50.000000" width="100.000000%" height="100.000000%" xlink:href="#ArialMT-114" stroke-linecap="butt" stroke-linejoin="round"></use><use x="83.300800" width="100.000000%" height="100.000000%" xlink:href="#ArialMT-121" stroke-linecap="butt" stroke-linejoin="round"></use><use x="133.301000" width="100.000000%" height="100.000000%" xlink:href="#ArialMT-115" stroke-linecap="butt" stroke-linejoin="round"></use><use x="183.301000" width="100.000000%" height="100.000000%" xlink:href="#ArialMT-116" stroke-linecap="butt" stroke-linejoin="round"></use><use x="211.084000" width="100.000000%" height="100.000000%" xlink:href="#ArialMT-97" stroke-linecap="butt" stroke-linejoin="round"></use><use x="266.699000" width="100.000000%" height="100.000000%" xlink:href="#ArialMT-108" stroke-linecap="butt" stroke-linejoin="round"></use><use x="288.916000" width="100.000000%" height="100.000000%" xlink:href="#ArialMT-115" stroke-linecap="butt" stroke-linejoin="round"></use></g></g></g></g></g></svg>